<svg id="Camada_1" data-name="Camada 1" xmlns="http://www.w3.org/2000/svg" viewBox="0 0 214 266"><defs><style>.cls-1{fill:#f2f2f2;}</style></defs><path class="cls-1" d="M384,340V600H317V340h67m3-3H314V603h73V337Z" transform="translate(-313 -337)"/><path class="cls-1" d="M454,413V600H387V413h67m3-3H384V603h73V410Z" transform="translate(-313 -337)"/><path class="cls-1" d="M524,379V600H457V379h67m3-3H454V603h73V376Z" transform="translate(-313 -337)"/><path class="cls-1" d="M524,492.06V600H457V562a70.1,70.1,0,0,1,67-69.94m3-3.06h0a73,73,0,0,0-73,73v41h73V489Z" transform="translate(-313 -337)"/><path class="cls-1" d="M387,492.06A70.1,70.1,0,0,1,454,562v38H387V492.06M384,489h0V603h73V562a73,73,0,0,0-73-73Z" transform="translate(-313 -337)"/><path class="cls-1" d="M383,492.06V600H316V562a70.1,70.1,0,0,1,67-69.94m3-3.06h0a73,73,0,0,0-73,73v41h73V489Z" transform="translate(-313 -337)"/></svg>