<svg id="Camada_1" data-name="Camada 1" xmlns="http://www.w3.org/2000/svg" viewBox="0 0 1152.91 315.73"><defs><style>.cls-1,.cls-4{fill:#fff;}.cls-2{fill:#e6e6e6;}.cls-3{fill:#ccc;}.cls-4{font-size:162px;font-family:Gotham-Black, Gotham Black;font-weight:800;}.cls-5{letter-spacing:0em;}.cls-6{letter-spacing:0em;}.cls-7{letter-spacing:-0.09em;}.cls-8{letter-spacing:-0.01em;}.cls-9{fill:#f2f2f2;}</style></defs><rect class="cls-1" x="0.5" y="22.46" width="72" height="265"/><path class="cls-1" d="M383,338V602H312V338h71m1-1H311V603h73V337Z" transform="translate(-311 -315.04)"/><rect class="cls-2" x="73.5" y="95.46" width="72" height="192"/><path class="cls-2" d="M456,411V602H385V411h71m1-1H384V603h73V410Z" transform="translate(-311 -315.04)"/><rect class="cls-3" x="146.5" y="61.46" width="72" height="226"/><path class="cls-3" d="M529,377V602H458V377h71m1-1H457V603h73V376Z" transform="translate(-311 -315.04)"/><text class="cls-4" transform="translate(244.26 137.7)">LIVR<tspan class="cls-5" x="392.36" y="0">O</tspan><tspan x="526.17" y="0">S DE</tspan><tspan x="0" y="150">R</tspan><tspan class="cls-5" x="116.48" y="150">E</tspan><tspan class="cls-6" x="223.72" y="150">CEI</tspan><tspan class="cls-7" x="503.01" y="150">T</tspan><tspan class="cls-8" x="595.35" y="150">A</tspan><tspan class="cls-6" x="722.52" y="150">S</tspan></text><path class="cls-2" d="M457.5,602.5V562a72.58,72.58,0,0,1,72-72.5v113Z" transform="translate(-311 -315.04)"/><path class="cls-2" d="M529,490V602H458V562a72.08,72.08,0,0,1,71-72m1-1h0a73,73,0,0,0-73,73v41h73V489Z" transform="translate(-311 -315.04)"/><path class="cls-9" d="M384.5,602.5v-113a72.58,72.58,0,0,1,72,72.5v40.5Z" transform="translate(-311 -315.04)"/><path class="cls-9" d="M385,490a72.08,72.08,0,0,1,71,72v40H385V490m-1-1h0V603h73V562a73,73,0,0,0-73-73Z" transform="translate(-311 -315.04)"/><path class="cls-3" d="M311.5,602.5V562a72.58,72.58,0,0,1,72-72.5v113Z" transform="translate(-311 -315.04)"/><path class="cls-3" d="M383,490V602H312V562a72.08,72.08,0,0,1,71-72m1-1h0a73,73,0,0,0-73,73v41h73V489Z" transform="translate(-311 -315.04)"/></svg>