<svg id="Camada_1" data-name="Camada 1" xmlns="http://www.w3.org/2000/svg" viewBox="0 0 219 266"><defs><style>.cls-1{fill:#ff5e3a;}.cls-2{fill:#e43b2a;}.cls-3{fill:#ffbb54;}.cls-4{fill:#ffb73d;}.cls-5{fill:#ff9b49;}</style></defs><rect class="cls-1" x="0.5" y="0.5" width="72" height="265"/><path class="cls-1" d="M922.22,407.81v264h-71v-264h71m1-1h-73v266h73v-266Z" transform="translate(-850.22 -406.81)"/><rect class="cls-2" x="73.5" y="73.5" width="72" height="192"/><path class="cls-2" d="M995.22,480.81v191h-71v-191h71m1-1h-73v193h73v-193Z" transform="translate(-850.22 -406.81)"/><rect class="cls-3" x="146.5" y="39.5" width="72" height="226"/><path class="cls-4" d="M1068.22,446.81v225h-71v-225h71m1-1h-73v227h73v-227Z" transform="translate(-850.22 -406.81)"/><path class="cls-1" d="M996.72,672.31v-40.5a72.58,72.58,0,0,1,72-72.5v113Z" transform="translate(-850.22 -406.81)"/><path class="cls-1" d="M1068.22,559.82v112h-71v-40a72.08,72.08,0,0,1,71-72m1-1h0a73,73,0,0,0-73,73v41h73v-114Z" transform="translate(-850.22 -406.81)"/><path class="cls-5" d="M923.72,672.31v-113a72.58,72.58,0,0,1,72,72.5v40.5Z" transform="translate(-850.22 -406.81)"/><path class="cls-5" d="M924.22,559.82a72.08,72.08,0,0,1,71,72v40h-71v-112m-1-1h0v114h73v-41a73,73,0,0,0-73-73Z" transform="translate(-850.22 -406.81)"/><path class="cls-3" d="M850.72,672.31v-40.5a72.58,72.58,0,0,1,72-72.5v113Z" transform="translate(-850.22 -406.81)"/><path class="cls-3" d="M922.22,559.82v112h-71v-40a72.08,72.08,0,0,1,71-72m1-1h0a73,73,0,0,0-73,73v41h73v-114Z" transform="translate(-850.22 -406.81)"/></svg>