<svg id="Camada_1" data-name="Camada 1" xmlns="http://www.w3.org/2000/svg" viewBox="0 0 1152.41 318.73"><defs><style>.cls-1,.cls-2{fill:#f2f2f2;}.cls-2{font-size:162px;stroke:#f2f2f2;stroke-miterlimit:10;stroke-width:3px;font-family:Gotham-Black, Gotham Black;font-weight:800;}.cls-3{letter-spacing:0em;}.cls-4{letter-spacing:0em;}.cls-5{letter-spacing:-0.09em;}.cls-6{letter-spacing:-0.01em;}</style></defs><path class="cls-1" d="M384,340V600H317V340h67m3-3H314V603h73V337Z" transform="translate(-313 -313.54)"/><path class="cls-1" d="M454,413V600H387V413h67m3-3H384V603h73V410Z" transform="translate(-313 -313.54)"/><path class="cls-1" d="M524,379V600H457V379h67m3-3H454V603h73V376Z" transform="translate(-313 -313.54)"/><text class="cls-2" transform="translate(242.26 139.2)">LIVR<tspan class="cls-3" x="392.36" y="0">O</tspan><tspan x="526.17" y="0">S DE</tspan><tspan x="0" y="150">R</tspan><tspan class="cls-3" x="116.48" y="150">E</tspan><tspan class="cls-4" x="223.72" y="150">CEI</tspan><tspan class="cls-5" x="503.01" y="150">T</tspan><tspan class="cls-6" x="595.35" y="150">A</tspan><tspan class="cls-4" x="722.52" y="150">S</tspan></text><path class="cls-1" d="M524,492.06V600H457V562a70.1,70.1,0,0,1,67-69.94m3-3.06h0a73,73,0,0,0-73,73v41h73V489Z" transform="translate(-313 -313.54)"/><path class="cls-1" d="M387,492.06A70.1,70.1,0,0,1,454,562v38H387V492.06M384,489h0V603h73V562a73,73,0,0,0-73-73Z" transform="translate(-313 -313.54)"/><path class="cls-1" d="M383,492.06V600H316V562a70.1,70.1,0,0,1,67-69.94m3-3.06h0a73,73,0,0,0-73,73v41h73V489Z" transform="translate(-313 -313.54)"/></svg>