<svg id="Camada_1" data-name="Camada 1" xmlns="http://www.w3.org/2000/svg" viewBox="0 0 1152.91 315.73"><defs><style>.cls-1{fill:#ff5e3a;}.cls-2{fill:#e43b2a;}.cls-3{fill:#ffbb54;}.cls-4{fill:#ffb73d;}.cls-5{font-size:162px;fill:#131313;font-family:Gotham-Black, Gotham Black;font-weight:800;}.cls-6{letter-spacing:0em;}.cls-7{letter-spacing:0em;}.cls-8{letter-spacing:-0.09em;}.cls-9{letter-spacing:-0.01em;}.cls-10{fill:#ff9b49;}</style></defs><rect class="cls-1" x="0.5" y="22.46" width="72" height="265"/><path class="cls-1" d="M528.22,404.91v264h-71v-264h71m1-1h-73v266h73v-266Z" transform="translate(-456.22 -381.95)"/><rect class="cls-2" x="73.5" y="95.46" width="72" height="192"/><path class="cls-2" d="M601.22,477.91v191h-71v-191h71m1-1h-73v193h73v-193Z" transform="translate(-456.22 -381.95)"/><rect class="cls-3" x="146.5" y="61.46" width="72" height="226"/><path class="cls-4" d="M674.22,443.91v225h-71v-225h71m1-1h-73v227h73v-227Z" transform="translate(-456.22 -381.95)"/><text class="cls-5" transform="translate(244.26 137.7)">LIVR<tspan class="cls-6" x="392.36" y="0">O</tspan><tspan x="526.17" y="0">S DE</tspan><tspan x="0" y="150">R</tspan><tspan class="cls-6" x="116.48" y="150">E</tspan><tspan class="cls-7" x="223.72" y="150">CEI</tspan><tspan class="cls-8" x="503.01" y="150">T</tspan><tspan class="cls-9" x="595.35" y="150">A</tspan><tspan class="cls-7" x="722.52" y="150">S</tspan></text><path class="cls-1" d="M602.72,669.41v-40.5a72.58,72.58,0,0,1,72-72.5v113Z" transform="translate(-456.22 -381.95)"/><path class="cls-1" d="M674.22,556.91v112h-71v-40a72.09,72.09,0,0,1,71-72m1-1h0a73,73,0,0,0-73,73v41h73v-114Z" transform="translate(-456.22 -381.95)"/><path class="cls-10" d="M529.72,669.41v-113a72.58,72.58,0,0,1,72,72.5v40.5Z" transform="translate(-456.22 -381.95)"/><path class="cls-10" d="M530.22,556.91a72.09,72.09,0,0,1,71,72v40h-71v-112m-1-1h0v114h73v-41a73,73,0,0,0-73-73Z" transform="translate(-456.22 -381.95)"/><path class="cls-3" d="M456.72,669.41v-40.5a72.58,72.58,0,0,1,72-72.5v113Z" transform="translate(-456.22 -381.95)"/><path class="cls-3" d="M528.22,556.91v112h-71v-40a72.09,72.09,0,0,1,71-72m1-1h0a73,73,0,0,0-73,73v41h73v-114Z" transform="translate(-456.22 -381.95)"/></svg>